<svg width="12" height="17" viewBox="0 0 12 17" fill="none" xmlns="http://www.w3.org/2000/svg">
<path d="M3.62772 9.33133C3.40594 9.33133 3.21584 9.24778 3.06535 9.08903C2.91485 8.93029 2.83564 8.72976 2.83564 8.49582V3.33238L1.34653 4.90313C1.20396 5.05352 1.02178 5.13708 0.8 5.13708C0.578218 5.13708 0.39604 5.06188 0.237624 4.90313C0.0792079 4.73603 0 4.53551 0 4.30992C0 4.08433 0.0792079 3.88381 0.237624 3.71671L3.07327 0.725587C3.15248 0.642037 3.2396 0.583551 3.33465 0.550131C3.4297 0.51671 3.52475 0.5 3.63564 0.5C3.74653 0.5 3.84158 0.51671 3.93663 0.550131C4.03168 0.583551 4.11881 0.642037 4.19802 0.725587L7.0495 3.73342C7.20792 3.90052 7.28713 4.09269 7.27921 4.31828C7.27129 4.54386 7.19208 4.73603 7.03366 4.90313C6.87525 5.05352 6.69307 5.13708 6.47921 5.14543C6.26535 5.14543 6.08317 5.07024 5.92475 4.90313L4.43564 3.33238V8.49582C4.43564 8.72976 4.35644 8.93029 4.20594 9.08903C4.05545 9.24778 3.86535 9.33133 3.64356 9.33133H3.62772ZM8.3802 16.5C8.27723 16.5 8.17426 16.4833 8.07921 16.4499C7.98416 16.4165 7.89703 16.358 7.81782 16.2744L4.96634 13.2666C4.80792 13.0995 4.72871 12.9073 4.73663 12.6817C4.74455 12.4561 4.82376 12.264 4.98218 12.0969C5.14059 11.9465 5.32277 11.8629 5.53663 11.8546C5.75049 11.8462 5.93267 11.9298 6.09109 12.0969L7.5802 13.6676V8.50418C7.5802 8.27024 7.65941 8.06971 7.8099 7.91097C7.9604 7.75222 8.15049 7.66867 8.37228 7.66867C8.59406 7.66867 8.78416 7.75222 8.93465 7.91097C9.08515 8.06971 9.16436 8.27024 9.16436 8.50418V13.6676L10.6535 12.0969C10.796 11.9465 10.9782 11.8629 11.2 11.8629C11.4218 11.8629 11.604 11.9381 11.7624 12.0969C11.9208 12.264 12 12.4645 12 12.6901C12 12.9157 11.9208 13.1162 11.7624 13.2833L8.92673 16.2744C8.84753 16.358 8.7604 16.4165 8.66535 16.4499C8.5703 16.4833 8.47525 16.5 8.36436 16.5H8.3802Z" fill="white"/>
</svg>
