<svg width="16" height="16" viewBox="0 0 16 16" fill="none" xmlns="http://www.w3.org/2000/svg">
<path d="M5.91716 11.8343C4.264 11.8343 2.86391 11.2608 1.71871 10.1156C0.573509 8.97041 0 7.57032 0 5.91716C0 4.264 0.573509 2.86391 1.71871 1.71871C2.86391 0.573509 4.264 0 5.91716 0C7.57032 0 8.97041 0.573509 10.1156 1.71871C11.2608 2.86391 11.8343 4.264 11.8343 5.91716C11.8343 6.58534 11.7287 7.21347 11.5157 7.80701C11.3027 8.40055 11.015 8.92126 10.6509 9.37642L15.7487 14.4743C15.9162 14.6418 16 14.853 16 15.1115C16 15.3701 15.9162 15.5812 15.7487 15.7487C15.5812 15.9162 15.3701 16 15.1115 16C14.853 16 14.6418 15.9162 14.4743 15.7487L9.37642 10.6509C8.92126 11.015 8.3969 11.3027 7.80701 11.5157C7.21529 11.7287 6.58534 11.8343 5.91716 11.8343ZM5.91716 10.0137C7.05508 10.0137 8.02185 9.61493 8.8193 8.8193C9.61493 8.02185 10.0137 7.05508 10.0137 5.91716C10.0137 4.77924 9.61493 3.81247 8.8193 3.01502C8.02185 2.21757 7.05508 1.82066 5.91716 1.82066C4.77924 1.82066 3.81247 2.21939 3.01502 3.01502C2.21939 3.81065 1.82066 4.77924 1.82066 5.91716C1.82066 7.05508 2.21939 8.02185 3.01502 8.8193C3.81247 9.61493 4.77924 10.0137 5.91716 10.0137Z" fill="white"/>
</svg>
