<svg width="16" height="16" viewBox="0 0 16 16" fill="none" xmlns="http://www.w3.org/2000/svg">
<path d="M8 8.00999C6.9 8.00999 5.96 7.62047 5.17 6.83146C4.39 6.05243 3.99 5.10362 3.99 4.00499C3.99 2.90637 4.38 1.96754 5.17 1.17853C5.96 0.389513 6.9 0 8 0C9.1 0 10.04 0.389513 10.83 1.17853C11.62 1.96754 12.01 2.90637 12.01 4.00499C12.01 5.10362 11.62 6.04245 10.83 6.83146C10.05 7.61049 9.1 8.00999 8 8.00999ZM0 14.0025V13.2035C0 12.6342 0.15 12.1149 0.44 11.6454C0.73 11.176 1.12 10.8065 1.6 10.5568C2.63 10.0375 3.68 9.65793 4.75 9.39825C5.82 9.13858 6.9 9.00874 8 9.00874C9.1 9.00874 10.18 9.13858 11.25 9.39825C12.32 9.65793 13.37 10.0474 14.4 10.5568C14.88 10.8065 15.27 11.166 15.56 11.6454C15.85 12.1248 16 12.6442 16 13.2035V14.0025C16 14.5518 15.8 15.0212 15.41 15.4107C15.02 15.8002 14.55 16 14 16H2C1.45 16 0.98 15.8002 0.59 15.4107C0.2 15.0212 0 14.5518 0 14.0025ZM2 14.0025H14V13.2035C14 13.0237 13.95 12.8539 13.86 12.7041C13.77 12.5543 13.65 12.4345 13.5 12.3546C12.6 11.9051 11.69 11.5655 10.77 11.3458C9.85 11.1261 8.93 11.0062 7.99 11.0062C7.05 11.0062 6.13 11.1161 5.21 11.3458C4.29 11.5755 3.38 11.9051 2.48 12.3546C2.33 12.4345 2.21 12.5543 2.12 12.7041C2.03 12.8539 1.98 13.0237 1.98 13.2035V14.0025H2ZM8 6.01248C8.55 6.01248 9.02 5.81273 9.41 5.42322C9.8 5.03371 10 4.56429 10 4.01498C10 3.46567 9.8 2.99625 9.41 2.60674C9.02 2.21723 8.55 2.01748 8 2.01748C7.45 2.01748 6.98 2.21723 6.59 2.60674C6.2 2.99625 6 3.46567 6 4.01498C6 4.56429 6.2 5.03371 6.59 5.42322C6.98 5.81273 7.45 6.01248 8 6.01248Z" fill="#D0021B"/>
</svg>
