<svg width="18" height="18" viewBox="0 0 18 18" fill="none" xmlns="http://www.w3.org/2000/svg">
<path d="M7.71429 10.2857H1.28571C0.925714 10.2857 0.617143 10.1571 0.372857 9.91286C0.128571 9.66857 0 9.36 0 9C0 8.64 0.128571 8.33143 0.372857 8.08714C0.617143 7.84286 0.925714 7.71429 1.28571 7.71429H7.71429V1.28571C7.71429 0.925714 7.84286 0.617143 8.08714 0.372857C8.33143 0.128571 8.64 0 9 0C9.36 0 9.66857 0.128571 9.91286 0.372857C10.1571 0.617143 10.2857 0.925714 10.2857 1.28571V7.71429H16.7143C17.0743 7.71429 17.3829 7.84286 17.6271 8.08714C17.8714 8.33143 18 8.64 18 9C18 9.36 17.8714 9.66857 17.6271 9.91286C17.3829 10.1571 17.0743 10.2857 16.7143 10.2857H10.2857V16.7143C10.2857 17.0743 10.1571 17.3829 9.91286 17.6271C9.66857 17.8714 9.36 18 9 18C8.64 18 8.33143 17.8714 8.08714 17.6271C7.84286 17.3829 7.71429 17.0743 7.71429 16.7143V10.2857Z" fill="white"/>
</svg>
