<svg width="16" height="16" viewBox="0 0 16 16" fill="none" xmlns="http://www.w3.org/2000/svg">
<path d="M10.0833 12.8C9.5 12.8 9.00833 12.608 8.6 12.216C8.2 11.832 7.99167 11.352 7.99167 10.792C7.99167 10.232 8.19167 9.76 8.6 9.368C9 8.984 9.5 8.784 10.0833 8.784C10.6667 8.784 11.1583 8.976 11.5667 9.368C11.975 9.76 12.175 10.232 12.175 10.792C12.175 11.352 11.975 11.824 11.5667 12.216C11.1667 12.6 10.6667 12.8 10.0833 12.8ZM2.16667 16C1.70833 16 1.31667 15.84 0.991667 15.528C0.666667 15.216 0.5 14.84 0.5 14.4V3.2C0.5 2.76 0.666667 2.384 0.991667 2.072C1.31667 1.76 1.70833 1.6 2.16667 1.6H3V0H4.66667V1.6H11.3333V0H13V1.6H13.8333C14.2917 1.6 14.6833 1.76 15.0083 2.072C15.3333 2.384 15.5 2.76 15.5 3.2V14.4C15.5 14.84 15.3333 15.216 15.0083 15.528C14.6833 15.84 14.2917 16 13.8333 16H2.16667ZM2.16667 14.4H13.8333V6.4H2.16667V14.4ZM2.16667 4.8H13.8333V3.2H2.16667V4.8Z" fill="white"/>
</svg>
