<svg width="5" height="24" viewBox="0 0 5 24" fill="none" xmlns="http://www.w3.org/2000/svg">
<path d="M2.5 24C1.8125 24 1.225 23.7333 0.7375 23.2133C0.25 22.6933 0 22.0667 0 21.3333C0 20.6 0.25 19.9733 0.7375 19.4533C1.225 18.9333 1.8125 18.6667 2.5 18.6667C3.1875 18.6667 3.775 18.9333 4.2625 19.4533C4.75 19.9733 5 20.6 5 21.3333C5 22.0667 4.75 22.6933 4.2625 23.2133C3.775 23.7333 3.1875 24 2.5 24ZM2.5 16C1.8125 16 1.225 15.7333 0.7375 15.2133C0.25 14.6933 0 14.0667 0 13.3333V2.66667C0 1.93333 0.25 1.30667 0.7375 0.786667C1.225 0.266667 1.8125 0 2.5 0C3.1875 0 3.775 0.266667 4.2625 0.786667C4.75 1.30667 5 1.93333 5 2.66667V13.3333C5 14.0667 4.75 14.6933 4.2625 15.2133C3.775 15.7333 3.1875 16 2.5 16Z" fill="white"/>
</svg>
